<mxfile host="app.diagrams.net" modified="2023-11-09T18:37:12.289Z" agent="Mozilla/5.0 (Windows NT 10.0; Win64; x64) AppleWebKit/537.36 (KHTML, like Gecko) Chrome/116.0.0.0 Safari/537.36 OPR/102.0.0.0" version="22.1.0" etag="Qn1Yyi4-Db3T4URbro8Z" type="github">
  <diagram name="PÃ¡gina-1" id="T2yqHw752nHg-Ut4782-">
    <mxGraphModel>
      <root>
        <mxCell id="0" />
        <mxCell id="1" parent="0" />
      </root>
    </mxGraphModel>
  </diagram>
</mxfile>
